<svg width="23" height="24" viewBox="0 0 23 24" fill="none" xmlns="http://www.w3.org/2000/svg">
<path d="M21.9999 11.1749H12.3624V1.49995C12.3624 1.04995 11.9874 0.637451 11.5 0.637451C11.0499 0.637451 10.6375 1.01245 10.6375 1.49995V11.1749H0.999951C0.549951 11.1749 0.137451 11.5499 0.137451 12.0374C0.137451 12.4874 0.512451 12.9 0.999951 12.9H10.6749V22.4999C10.6749 22.9499 11.0499 23.3624 11.5374 23.3624C11.9874 23.3624 12.4 22.9874 12.4 22.4999V12.8624H21.9999C22.4499 12.8624 22.8624 12.4874 22.8624 12C22.8624 11.5499 22.4499 11.1749 21.9999 11.1749Z" fill="white"/>
</svg>
