<svg width="36" height="36" viewBox="0 0 36 36" fill="none" xmlns="http://www.w3.org/2000/svg">
<g clip-path="url(#clip0_1074_24407)">
<path d="M3.09379 35.1561C2.58754 35.1561 2.08129 34.9874 1.68754 34.5936C1.01254 33.9749 0.843791 33.0749 1.12504 32.2874L3.43129 26.3249C1.63129 23.2311 0.843791 19.6311 1.23754 15.9749C2.08129 8.09987 8.38129 1.74362 16.2563 0.956116C21.375 0.449866 26.3813 2.19362 30.0375 5.79362C33.6375 9.39362 35.4375 14.3999 34.9313 19.5186C34.1438 27.5624 27.7313 33.9186 19.6875 34.6499C15.975 34.9874 12.375 34.1999 9.28129 32.2874L4.05004 34.9311C3.71254 35.0999 3.43129 35.1561 3.09379 35.1561ZM9.33754 29.5874C9.56254 29.5874 9.84379 29.6436 10.0125 29.8124C12.825 31.6686 16.0313 32.4561 19.4063 32.1749C26.2125 31.5561 31.6688 26.0999 32.3438 19.2936C32.7938 14.9061 31.275 10.6874 28.1813 7.59362C25.1438 4.49987 20.8688 2.98112 16.5375 3.48737C9.78754 4.16237 4.44379 9.56237 3.71254 16.2561C3.37504 19.5749 4.16254 22.7811 5.90629 25.5374C6.13129 25.8749 6.18754 26.3249 6.01879 26.6624L3.88129 32.1749L8.77504 29.6999C9.00004 29.6436 9.16879 29.5874 9.33754 29.5874Z" fill="#9B9B9B"/>
</g>
<defs>
<clipPath id="clip0_1074_24407">
<rect width="36" height="36" fill="white"/>
</clipPath>
</defs>
</svg>
