<svg width="24" height="24" viewBox="0 0 24 24" fill="none" xmlns="http://www.w3.org/2000/svg">
<path d="M11.9998 0.674805C5.73731 0.674805 0.674805 5.73731 0.674805 11.9998C0.674805 18.2623 5.73731 23.3623 11.9998 23.3623C18.2623 23.3623 23.3623 18.2623 23.3623 11.9998C23.3623 5.73731 18.2623 0.674805 11.9998 0.674805ZM11.9998 21.6748C6.67481 21.6748 2.3623 17.3248 2.3623 11.9998C2.3623 6.67481 6.67481 2.3623 11.9998 2.3623C17.3248 2.3623 21.6748 6.7123 21.6748 12.0373C21.6748 17.3248 17.3248 21.6748 11.9998 21.6748Z" fill="#BA1A1A"/>
<path d="M11.9998 21.6748C6.67481 21.6748 2.3623 17.3248 2.3623 11.9998C2.3623 6.67481 6.67481 2.3623 11.9998 2.3623C17.3248 2.3623 21.6748 6.7123 21.6748 12.0373C21.6748 17.3248 17.3248 21.6748 11.9998 21.6748Z" fill="#BA1A1A"/>
<path d="M15.4499 8.5124C15.1124 8.1749 14.5874 8.1749 14.2499 8.5124L11.9999 10.7999L9.7124 8.5124C9.3749 8.1749 8.8499 8.1749 8.5124 8.5124C8.1749 8.8499 8.1749 9.3749 8.5124 9.7124L10.7999 11.9999L8.5124 14.2874C8.1749 14.6249 8.1749 15.1499 8.5124 15.4874C8.6624 15.6374 8.8874 15.7499 9.1124 15.7499C9.3374 15.7499 9.5624 15.6749 9.7124 15.4874L11.9999 13.1999L14.2874 15.4874C14.4374 15.6374 14.6624 15.7499 14.8874 15.7499C15.1124 15.7499 15.3374 15.6749 15.4874 15.4874C15.8249 15.1499 15.8249 14.6249 15.4874 14.2874L13.1999 11.9999L15.4874 9.7124C15.7874 9.3749 15.7874 8.8499 15.4499 8.5124Z" fill="white"/>
</svg>
