<svg width="24" height="20" viewBox="0 0 24 20" fill="none" xmlns="http://www.w3.org/2000/svg">
<path d="M21.0002 1.97498H19.0502V1.14998C19.0502 0.699975 18.6752 0.287476 18.1877 0.287476C17.7002 0.287476 17.3252 0.662476 17.3252 1.14998V1.97498H6.63769V1.14998C6.63769 0.699975 6.26269 0.287476 5.77519 0.287476C5.28769 0.287476 4.9127 0.662476 4.9127 1.14998V1.97498H3.0002C1.7252 1.97498 0.637695 3.02498 0.637695 4.33748V17.3875C0.637695 18.6625 1.6877 19.75 3.0002 19.75H21.0002C22.2752 19.75 23.3627 18.7 23.3627 17.3875V4.29998C23.3627 3.02498 22.2752 1.97498 21.0002 1.97498ZM2.3627 8.94998H5.5502V12.6625H2.3627V8.94998ZM7.23769 8.94998H11.1752V12.6625H7.23769V8.94998ZM11.1752 14.35V18.025H7.23769V14.35H11.1752ZM12.8627 14.35H16.8002V18.025H12.8627V14.35ZM12.8627 12.6625V8.94998H16.8002V12.6625H12.8627ZM18.4502 8.94998H21.6377V12.6625H18.4502V8.94998ZM3.0002 3.66248H4.95019V4.44998C4.95019 4.89998 5.32519 5.31248 5.8127 5.31248C6.30019 5.31248 6.67519 4.93748 6.67519 4.44998V3.66248H17.4002V4.44998C17.4002 4.89998 17.7752 5.31248 18.2627 5.31248C18.7502 5.31248 19.1252 4.93748 19.1252 4.44998V3.66248H21.0002C21.3752 3.66248 21.6752 3.96248 21.6752 4.33748V7.26248H2.3627V4.33748C2.3627 3.96248 2.6252 3.66248 3.0002 3.66248ZM2.3627 17.35V14.3125H5.5502V17.9875H3.0002C2.6252 18.025 2.3627 17.725 2.3627 17.35ZM21.0002 18.025H18.4502V14.35H21.6377V17.3875C21.6752 17.725 21.3752 18.025 21.0002 18.025Z" fill="#625B71"/>
</svg>
