<svg width="20" height="20" viewBox="0 0 20 20" fill="none" xmlns="http://www.w3.org/2000/svg">
<path fill-rule="evenodd" clip-rule="evenodd" d="M10.0002 0.5625C4.78143 0.5625 0.562683 4.78125 0.562683 10C0.562683 15.2188 4.78143 19.4688 10.0002 19.4688C15.2189 19.4688 19.4689 15.2188 19.4689 10C19.4689 4.78125 15.2189 0.5625 10.0002 0.5625ZM10.563 3.78124C9.65676 3.62499 8.71926 3.87499 8.03176 4.46874C7.34426 5.06249 6.93801 5.90624 6.93801 6.84374C6.93801 7.18749 7.00051 7.53124 7.12551 7.87499C7.25051 8.24999 7.65676 8.43749 8.03176 8.31249C8.40676 8.18749 8.59426 7.78124 8.46926 7.40624C8.40676 7.21874 8.37551 7.03124 8.37551 6.84374C8.37551 6.34374 8.59426 5.87499 8.96926 5.56249C9.34426 5.24999 9.84426 5.09374 10.3755 5.18749C11.0318 5.31249 11.5943 5.87499 11.7193 6.53124C11.8443 7.31249 11.438 8.09374 10.7193 8.40624C9.90676 8.74999 9.37551 9.56249 9.37551 10.5V12.4375C9.37551 12.8125 9.68801 13.1562 10.0943 13.1562C10.4693 13.1562 10.813 12.8437 10.813 12.4375V10.5C10.813 10.1562 11.0005 9.84374 11.2818 9.71874C12.6255 9.15624 13.4068 7.74999 13.1568 6.31249C12.813 5.03124 11.813 3.99999 10.563 3.78124ZM9.93785 14.3125H10.0316C10.4378 14.3125 10.7191 14.625 10.7191 15.0312C10.7191 15.4375 10.4066 15.75 10.0316 15.75H9.93785C9.5316 15.75 9.2191 15.4375 9.2191 15.0312C9.2191 14.625 9.56285 14.3125 9.93785 14.3125Z" fill="#9B9B9B"/>
</svg>
