<svg width="22" height="20" viewBox="0 0 22 20" fill="none" xmlns="http://www.w3.org/2000/svg">
    <path d="M19.2499 3.74377H11.7905V1.57815C11.7905 1.16565 11.4468 0.821899 10.9999 0.821899C10.553 0.821899 10.2437 1.16565 10.2437 1.57815V3.74377H2.7499C1.58115 3.74377 0.618652 4.70627 0.618652 5.87502V17.0469C0.618652 18.2157 1.58115 19.1782 2.7499 19.1782H19.2499C20.4187 19.1782 21.3812 18.2157 21.3812 17.0469V5.87502C21.4155 4.70627 20.4187 3.74377 19.2499 3.74377ZM19.8687 17.0469C19.8687 17.3907 19.5937 17.6657 19.2499 17.6657H2.7499C2.40615 17.6657 2.13115 17.3907 2.13115 17.0469V5.87502C2.13115 5.53127 2.40615 5.25628 2.7499 5.25628H19.2499C19.5937 5.25628 19.8687 5.53127 19.8687 5.87502V17.0469Z" fill="#625B71"/>
    <path d="M6.97793 11.3406C8.35293 11.3406 9.45293 10.2406 9.45293 8.86563C9.45293 7.49063 8.35293 6.39062 6.97793 6.39062C5.60293 6.39062 4.50293 7.49063 4.50293 8.86563C4.50293 10.2406 5.60293 11.3406 6.97793 11.3406ZM6.97793 7.9375C7.49355 7.9375 7.90605 8.35 7.90605 8.86563C7.90605 9.38125 7.49355 9.79375 6.97793 9.79375C6.4623 9.79375 6.0498 9.38125 6.0498 8.86563C6.0498 8.35 6.4623 7.9375 6.97793 7.9375Z" fill="#625B71"/>
    <path d="M6.97783 12.0969C5.29346 12.0969 3.91846 13.4719 3.91846 15.1563C3.91846 15.5688 4.26221 15.9125 4.67471 15.9125C5.08721 15.9125 5.43096 15.5688 5.43096 15.1563C5.43096 14.3313 6.11846 13.6438 6.94346 13.6438C7.76846 13.6438 8.45596 14.3313 8.45596 15.1563C8.45596 15.5688 8.79971 15.9125 9.21221 15.9125C9.62471 15.9125 9.96846 15.5688 9.96846 15.1563C10.0372 13.4719 8.66221 12.0969 6.97783 12.0969Z" fill="#625B71"/>
    <path d="M16.7407 7.59375H12.5126C12.1001 7.59375 11.7563 7.9375 11.7563 8.35C11.7563 8.7625 12.1001 9.10625 12.5126 9.10625H16.7407C17.1532 9.10625 17.497 8.7625 17.497 8.35C17.497 7.9375 17.1532 7.59375 16.7407 7.59375Z" fill="#625B71"/>
    <path d="M16.7407 10.6188H12.5126C12.1001 10.6188 11.7563 10.9625 11.7563 11.375C11.7563 11.7875 12.1001 12.1313 12.5126 12.1313H16.7407C17.1532 12.1313 17.497 11.7875 17.497 11.375C17.497 10.9625 17.1532 10.6188 16.7407 10.6188Z" fill="#625B71"/>
    <path d="M15.2282 14.2281H12.5126C12.1001 14.2281 11.7563 14.5719 11.7563 14.9844C11.7563 15.3969 12.1001 15.7407 12.5126 15.7407H15.2282C15.6407 15.7407 15.9845 15.3969 15.9845 14.9844C15.9845 14.5719 15.6751 14.2281 15.2282 14.2281Z" fill="#625B71"/>
</svg>