<svg width="24" height="22" viewBox="0 0 24 22" fill="none" xmlns="http://www.w3.org/2000/svg">
<path d="M3.15009 12.125C3.26259 12.125 3.41259 12.1625 3.52509 12.2L7.68759 13.6625C8.13759 13.8125 8.36259 14.3 8.21259 14.75C8.06259 15.2 7.57509 15.425 7.12509 15.275L4.53759 14.375C5.77509 17.6 8.92509 19.775 12.5251 19.775C16.4626 19.775 19.8751 17.15 20.8501 13.4C20.9626 12.95 21.4126 12.6875 21.8626 12.8C22.3126 12.9125 22.5751 13.3625 22.4626 13.8125C21.3001 18.3125 17.2126 21.4625 12.4876 21.4625C8.28759 21.4625 4.57509 18.9875 3.03759 15.275L2.25009 17.525C2.10009 17.975 1.61259 18.2 1.16259 18.05C0.712587 17.9 0.487587 17.4125 0.637587 16.9625L2.06259 12.875C2.28759 12.3875 2.70009 12.125 3.15009 12.125Z" fill="#1C1B1E"/>
<path d="M23.2878 4.36248L21.7503 8.37498C21.6378 8.63748 21.4503 8.86248 21.1878 8.97498C20.9253 9.08748 20.6253 9.08748 20.3628 8.97498L16.2378 7.39998C15.7878 7.24998 15.6003 6.76248 15.7503 6.31248C15.9003 5.86248 16.3878 5.67498 16.8378 5.82498L19.4253 6.79998C17.9253 4.06248 15.0003 2.26248 11.7378 2.26248C8.02528 2.26248 4.76278 4.58748 3.60028 8.03748C3.45028 8.48748 2.96278 8.71248 2.55028 8.56248C2.10028 8.41248 1.87528 7.92498 2.02528 7.51248C3.41278 3.38748 7.31278 0.612482 11.7378 0.612482C15.6003 0.612482 19.0878 2.74998 20.8503 6.04998L21.7128 3.76248C21.8253 3.42498 22.1628 3.23748 22.5003 3.23748C22.6128 3.23748 22.6878 3.23748 22.8003 3.31248C23.2503 3.42498 23.4378 3.91248 23.2878 4.36248Z" fill="#1C1B1E"/>
</svg>
