<svg width="20" height="18" viewBox="0 0 20 18" fill="none" xmlns="http://www.w3.org/2000/svg">
    <path d="M19.0001 8.175H2.9876L9.3626 1.6875C9.7001 1.35 9.7001 0.825 9.3626 0.4875C9.0251 0.15 8.5001 0.15 8.1626 0.4875L0.400098 8.3625C0.0625976 8.7 0.0625976 9.225 0.400098 9.5625L8.1626 17.4375C8.3126 17.5875 8.5376 17.7 8.7626 17.7C8.9876 17.7 9.1751 17.625 9.3626 17.475C9.7001 17.1375 9.7001 16.6125 9.3626 16.275L3.0251 9.8625H19.0001C19.4501 9.8625 19.8251 9.4875 19.8251 9.0375C19.8251 8.55 19.4501 8.175 19.0001 8.175Z" fill="black"/>
</svg>
