<svg width="22" height="23" viewBox="0 0 22 23" fill="none" xmlns="http://www.w3.org/2000/svg">
<path d="M17.075 10.7875C19.7 10.7875 21.875 8.64998 21.875 5.98748C21.875 3.36248 19.7375 1.18748 17.075 1.18748C15.125 1.18748 13.4375 2.34998 12.6875 4.03748C11.75 3.51248 10.7 3.17498 9.57501 3.06248V1.67498C9.57501 1.22498 9.20001 0.849976 8.75001 0.849976C8.30001 0.849976 7.92501 1.22498 7.92501 1.67498V3.09998C7.88751 3.09998 7.85001 3.09998 7.81251 3.09998C3.98751 3.51248 1.10001 6.58748 1.10001 10.2625V16.9375C1.06251 17.2375 0.987513 17.3875 0.950013 17.5L0.350013 18.55C0.125013 18.8875 0.087513 19.3375 0.312513 19.7125L0.350013 19.75C0.575013 20.0875 0.912513 20.275 1.32501 20.275H7.96251V21.3625C7.96251 21.8125 8.33751 22.1875 8.78751 22.1875C9.23751 22.1875 9.61251 21.8125 9.61251 21.3625V20.275H16.2875C16.7 20.275 17.0375 20.0875 17.2625 19.75C17.4875 19.375 17.4875 18.925 17.2625 18.55L16.625 17.5375C16.5125 17.35 16.4375 17.1625 16.4375 16.975V10.7125C16.625 10.75 16.85 10.7875 17.075 10.7875ZM17.075 2.87498C18.8 2.87498 20.1875 4.26248 20.1875 5.98748C20.1875 7.71248 18.8 9.09998 17.075 9.09998C15.35 9.09998 13.9625 7.71248 13.9625 5.98748C13.9625 4.26248 15.35 2.87498 17.075 2.87498ZM14.75 10.15V16.975C14.75 17.4625 14.9 17.95 15.1625 18.4375L15.2375 18.5875H8.78751C8.78751 18.5875 8.78751 18.5875 8.75001 18.5875C8.71251 18.5875 8.75001 18.5875 8.71251 18.5875H2.26251L2.41251 18.3625C2.60001 18.025 2.71251 17.65 2.78751 17.125V10.3C2.78751 7.48748 5.03751 5.08748 8.00001 4.78748C9.53751 4.59998 11.0375 4.97498 12.275 5.79998C12.275 5.87498 12.275 5.94998 12.275 5.98748C12.275 7.78748 13.2875 9.32498 14.75 10.15Z" fill="#9B9B9B"/>
</svg>
