<svg width="18" height="18" viewBox="0 0 18 18" fill="none" xmlns="http://www.w3.org/2000/svg">
<path d="M16.3685 10.2094L15.2997 9.59065C15.3278 9.4219 15.3278 9.22502 15.3278 9.00002C15.3278 8.80315 15.3278 8.60627 15.2997 8.4094L16.3685 7.79065C17.0997 7.36877 17.3528 6.41252 16.931 5.68127L15.8341 3.76877C15.6372 3.40315 15.2997 3.15002 14.906 3.06565C14.5122 2.95315 14.0903 3.0094 13.7247 3.20627L12.656 3.85315C12.3466 3.62815 12.0091 3.43127 11.6435 3.26252V2.02502C11.6435 1.18127 10.9403 0.478149 10.0966 0.478149H7.90285C7.0591 0.478149 6.35597 1.18127 6.35597 2.02502V3.26252C5.99035 3.43127 5.65285 3.62815 5.34347 3.82502L4.27472 3.20627C3.9091 3.0094 3.51535 2.95315 3.09347 3.06565C2.69972 3.17815 2.36222 3.43127 2.16535 3.76877L1.06847 5.68127C0.646598 6.41252 0.899723 7.36877 1.63097 7.79065L2.69972 8.4094C2.6716 8.57815 2.6716 8.77502 2.6716 9.00002C2.6716 9.1969 2.6716 9.39377 2.69972 9.59065L1.63097 10.2094C0.899723 10.6313 0.646598 11.5875 1.06847 12.3188L2.16535 14.2313C2.36222 14.5969 2.69972 14.85 3.09347 14.9344C3.48722 15.0469 3.9091 14.9906 4.27472 14.7938L5.34347 14.175C5.65285 14.4 5.99035 14.5969 6.35597 14.7375V15.975C6.35597 16.8188 7.0591 17.5219 7.90285 17.5219H10.0966C10.9403 17.5219 11.6435 16.8188 11.6435 15.975V14.7375C12.0091 14.5688 12.3466 14.3719 12.656 14.1469L13.7247 14.7656C14.0903 14.9625 14.4841 15.0188 14.8778 14.9063C15.2716 14.7938 15.6091 14.5406 15.806 14.2031L16.9028 12.2906C17.3247 11.5594 17.0716 10.6313 16.3685 10.2094ZM15.8341 11.6719L14.7372 13.5844C14.7091 13.6406 14.6528 13.6969 14.5685 13.6969C14.4841 13.725 14.4278 13.6969 14.3716 13.6688L13.2466 13.0219C12.8247 12.7688 12.3185 12.7969 11.9247 13.0781C11.6716 13.275 11.3903 13.4156 11.081 13.5563C10.6591 13.7531 10.3778 14.175 10.3778 14.6531V15.9469C10.3778 16.0875 10.2653 16.2281 10.0966 16.2281H7.90285C7.76222 16.2281 7.6216 16.1156 7.6216 15.9469V14.6531C7.6216 14.175 7.34035 13.7531 6.91847 13.5563C6.6091 13.4156 6.32785 13.2469 6.07472 13.0781C5.87785 12.9375 5.62472 12.8531 5.3716 12.8531C5.1466 12.8531 4.94972 12.9094 4.78097 13.0219L3.65597 13.6688C3.59972 13.6969 3.51535 13.725 3.4591 13.6969C3.40285 13.6688 3.3466 13.6406 3.29035 13.5844L2.19347 11.6719C2.1091 11.5313 2.16535 11.3625 2.27785 11.3063L3.40285 10.6594C3.7966 10.4344 4.04972 9.95627 3.99347 9.50627C3.96535 9.36565 3.96535 9.1969 3.96535 9.02815C3.96535 8.83127 3.96535 8.69065 3.99347 8.55002C4.04972 8.0719 3.82472 7.6219 3.40285 7.3969L2.27785 6.75002C2.13722 6.66565 2.1091 6.4969 2.16535 6.3844L3.26222 4.4719C3.29035 4.41565 3.3466 4.3594 3.43097 4.3594C3.51535 4.33127 3.5716 4.3594 3.62785 4.38752L4.75285 5.0344C5.17472 5.28752 5.68097 5.2594 6.07472 4.97815C6.32785 4.78127 6.6091 4.64065 6.91847 4.50002C7.34035 4.30315 7.6216 3.88127 7.6216 3.40315V2.02502C7.6216 1.8844 7.7341 1.74377 7.90285 1.74377H10.0966C10.2372 1.74377 10.3778 1.85627 10.3778 2.02502V3.31877C10.3778 3.7969 10.6591 4.21877 11.081 4.41565C11.3903 4.55627 11.6716 4.72502 11.9247 4.89377C12.3185 5.17502 12.8247 5.20315 13.2185 4.97815L14.3435 4.33127C14.3997 4.30315 14.4841 4.27502 14.5403 4.30315C14.5966 4.33127 14.6528 4.3594 14.7091 4.41565L15.806 6.32815C15.8903 6.46877 15.8341 6.63752 15.7216 6.69377L14.5966 7.34065C14.2028 7.56565 13.9497 8.04377 14.006 8.49377C14.0341 8.6344 14.0341 8.80315 14.0341 8.9719C14.0341 9.16877 14.0341 9.3094 14.006 9.45002C13.9497 9.92815 14.2028 10.3781 14.5966 10.6031L15.7216 11.25C15.8622 11.3625 15.8903 11.5313 15.8341 11.6719Z" />
<path d="M8.99922 5.37189C7.00234 5.37189 5.37109 7.00314 5.37109 9.00001C5.37109 10.9969 7.00234 12.6281 8.99922 12.6281C10.9961 12.6281 12.6273 10.9969 12.6273 9.00001C12.6273 7.00314 10.9961 5.37189 8.99922 5.37189ZM8.99922 11.3625C7.70547 11.3625 6.63672 10.2938 6.63672 9.00001C6.63672 7.70626 7.70547 6.63751 8.99922 6.63751C10.293 6.63751 11.3617 7.70626 11.3617 9.00001C11.3617 10.2938 10.293 11.3625 8.99922 11.3625Z" />
</svg>
