<svg width="383" height="338" viewBox="0 0 383 338" fill="none" xmlns="http://www.w3.org/2000/svg">
<path d="M303.557 148.092L242.557 143.532C236.649 143.084 230.719 144.062 225.267 146.382L209.041 153.298C206.859 157.26 204.177 160.925 201.061 164.204C193.233 172.564 163.213 188.106 147.367 191.374C143.633 192.038 139.785 191.366 136.499 189.474C129.32 195.234 121.797 200.552 113.973 205.4C113.973 205.4 128.793 247.618 183.973 223.754L227.863 204.716L218.249 227.782C218.515 240.968 218.591 258.258 217.717 269.782C228.021 272.92 239.011 273.026 249.373 270.084C253.513 241.964 256.667 197.58 245.951 180.822L298.393 180.328C305.001 168.426 304.419 161.658 303.557 148.092Z" fill="#CFBDFF"/>
<path d="M206.123 131.752L212.507 103.67C212.649 103.055 212.539 102.41 212.205 101.875C211.869 101.341 211.335 100.961 210.721 100.82C210.107 100.679 209.461 100.788 208.927 101.123C208.391 101.458 208.013 101.991 207.871 102.606L200.347 135.704" fill="#CFBDFF"/>
<path d="M206.123 131.752L212.507 103.67C212.649 103.055 212.539 102.41 212.205 101.875C211.869 101.341 211.335 100.961 210.721 100.82C210.107 100.679 209.461 100.788 208.927 101.123C208.391 101.458 208.013 101.991 207.871 102.606L200.347 135.704C201.293 139.194 203.835 143.875 206.123 131.752Z" fill="#CFBDFF"/>
<path d="M201.182 25.35C201.182 30.0624 199.784 34.6688 197.166 38.587C194.548 42.5052 190.828 45.559 186.474 47.3624C182.12 49.1658 177.33 49.6376 172.708 48.7182C168.086 47.799 163.841 45.5298 160.509 42.1976C157.177 38.8654 154.907 34.62 153.988 29.9982C153.069 25.3764 153.541 20.5858 155.344 16.2322C157.147 11.8786 160.201 8.1574 164.119 5.5394C168.037 2.9214 172.644 1.524 177.356 1.524C183.674 1.5278 189.732 4.0392 194.2 8.5066C198.666 12.974 201.178 19.0322 201.182 25.35Z" fill="#CFBDFF"/>
<path d="M325.601 151.094C321.229 161.459 315.053 170.968 307.361 179.176C311.579 179.822 315.797 180.776 319.407 181.342C323.167 179.702 326.693 177.57 329.891 175C339.891 166.944 360.491 156.95 365.003 151.25C356.833 150.068 336.845 150.866 325.601 151.094Z" fill="#684CB2"/>
<path d="M248.303 293.216C237.773 289.24 228.031 283.424 219.537 276.038C219.043 280.258 218.283 284.514 217.827 288.162C219.609 291.862 221.871 295.312 224.553 298.422C232.953 308.074 243.707 328.29 249.553 332.622C250.469 324.414 248.951 304.464 248.303 293.216Z" fill="#684CB2"/>
<path d="M117.849 172.754C117.089 173.134 116.291 173.476 115.493 173.818C111.766 169.438 108.264 164.873 105.001 160.138C105.343 160.938 115.831 183.622 133.235 192.172C134.375 191.26 135.477 190.386 136.503 189.512C130.001 185.978 123.245 179.138 117.849 172.754Z" fill="#684CB2"/>
<path d="M217.789 209.044C217.789 209.044 218.131 217.062 218.321 227.74L227.859 204.712L217.789 209.044Z" fill="#684CB2"/>
<path d="M115.455 73.042C115.455 73.042 108.801 60.576 93.1489 68.178C77.4969 75.78 80.5329 106.33 80.5329 106.33C80.5329 106.33 66.6229 112.98 59.2129 124.19C47.7369 141.556 53.5149 167.776 89.2009 167.776C87.4997 160.291 86.9107 152.595 87.4529 144.938C88.4029 131.448 93.3049 119.098 97.6369 106.444C103.161 90.086 101.975 91.394 103.907 85.392C99.3069 81.022 104.781 75.778 107.251 80.032C108.297 81.752 108.547 81.82 109.383 82.082C113.911 83.5 122.127 85.082 126.583 83.606C126.589 83.49 126.969 73.042 115.455 73.042Z" fill="#684CB2"/>
<path d="M107.019 111.726L102.953 101.542C104.309 103.359 105.908 104.983 107.703 106.368C107.369 108.139 107.141 109.928 107.019 111.726Z" fill="#684CB2"/>
<path d="M160.789 284.286C161.052 285.572 160.927 286.906 160.432 288.12C159.937 289.334 159.093 290.374 158.006 291.11C156.919 291.844 155.639 292.24 154.328 292.248C153.016 292.254 151.732 291.872 150.637 291.15C149.543 290.428 148.687 289.396 148.178 288.188C147.67 286.978 147.531 285.646 147.78 284.358C148.028 283.07 148.653 281.884 149.575 280.952C150.498 280.02 151.676 279.382 152.961 279.118C153.814 278.938 154.695 278.93 155.552 279.094C156.409 279.258 157.225 279.588 157.953 280.07C158.68 280.55 159.306 281.17 159.793 281.894C160.28 282.618 160.618 283.43 160.789 284.286Z" fill="#684CB2"/>
<path d="M201.183 25.35H202.183V25.3493L201.183 25.35ZM172.709 48.7182L172.904 47.7374L172.904 47.7374L172.709 48.7182ZM160.51 42.1976L161.217 41.4905L161.217 41.4905L160.51 42.1976ZM153.989 29.9982L153.008 30.1932V30.1933L153.989 29.9982ZM155.345 16.2322L154.421 15.8495L154.421 15.8495L155.345 16.2322ZM177.357 1.52396L177.358 0.523956H177.357V1.52396ZM194.201 8.50656L194.908 7.79956L194.908 7.7994L194.201 8.50656ZM253.732 222.021C253.239 221.772 252.637 221.97 252.389 222.463C252.14 222.956 252.338 223.558 252.831 223.807L253.732 222.021ZM272.927 232.832L272.477 233.725L272.478 233.725L272.927 232.832ZM285.921 233.8L285.609 232.85L285.609 232.85L285.921 233.8ZM295.805 225.308L296.697 225.76L296.698 225.759L295.805 225.308ZM319.194 181.223C319.443 180.73 319.245 180.128 318.752 179.879C318.259 179.63 317.658 179.828 317.409 180.321L319.194 181.223ZM331.659 152.125C331.41 152.618 331.607 153.219 332.1 153.468C332.593 153.718 333.194 153.52 333.444 153.027L331.659 152.125ZM346.421 125.14L347.314 125.591L347.314 125.59L346.421 125.14ZM347.389 112.146L346.439 112.459V112.459L347.389 112.146ZM338.897 102.264L339.349 101.372L339.348 101.371L338.897 102.264ZM200.526 31.2364C200.033 30.9874 199.432 31.1851 199.183 31.678C198.934 32.171 199.131 32.7725 199.624 33.0215L200.526 31.2364ZM120.491 122.949C120.242 123.442 120.44 124.044 120.933 124.293C121.426 124.542 122.027 124.344 122.276 123.851L120.491 122.949ZM162.552 44.0684C162.801 43.5754 162.603 42.9739 162.11 42.7251C161.617 42.4762 161.015 42.6741 160.766 43.1671L162.552 44.0684ZM347.226 112.067C347.772 111.979 348.142 111.466 348.054 110.921C347.967 110.376 347.453 110.005 346.908 110.093L347.226 112.067ZM231.127 129.776L230.238 130.234C230.436 130.618 230.859 130.832 231.286 130.763L231.127 129.776ZM189.16 46.0888C188.908 45.5978 188.305 45.4047 187.814 45.6575C187.323 45.9103 187.13 46.5133 187.382 47.0043L189.16 46.0888ZM168.341 229.933C168.713 229.524 168.683 228.892 168.274 228.52C167.865 228.149 167.233 228.179 166.861 228.587L168.341 229.933ZM136.798 251.812L136.38 250.903L136.38 250.904L136.798 251.812ZM62.0094 254.036L61.6461 254.968L61.6461 254.968L62.0094 254.036ZM29.9202 233.354L29.2217 234.07L29.2218 234.07L29.9202 233.354ZM8.46562 201.776L7.54301 202.162L7.54302 202.162L8.46562 201.776ZM1.05808 164.324L2.05806 164.329L1.05808 164.324ZM31.3658 96.3372C31.7653 95.9558 31.7799 95.3228 31.3985 94.9233C31.017 94.5239 30.384 94.5093 29.9846 94.8907L31.3658 96.3372ZM106.02 114.917C106.04 115.469 106.504 115.9 107.056 115.879C107.608 115.859 108.039 115.395 108.019 114.843L106.02 114.917ZM119.017 103.46L119.836 104.034C119.847 104.018 119.858 104.002 119.868 103.986L119.017 103.46ZM125.347 84.0058C125.337 83.4536 124.881 83.0141 124.329 83.0241C123.777 83.0341 123.337 83.4899 123.347 84.0421L125.347 84.0058ZM105.001 160.138L105.825 159.571C105.533 159.147 104.967 159.014 104.517 159.263C104.066 159.513 103.879 160.063 104.084 160.536L105.001 160.138ZM115.489 173.818L114.728 174.466C115.01 174.798 115.474 174.909 115.876 174.74L115.489 173.818ZM131.801 163.43L131.129 162.689L131.129 162.69L131.801 163.43ZM141.329 152.652L142.147 153.228C142.399 152.871 142.389 152.392 142.124 152.044L141.329 152.652ZM123.129 125.9L122.272 126.415L122.273 126.416L123.129 125.9ZM111.503 115.8L111.894 114.879C111.884 114.875 111.875 114.872 111.866 114.868L111.503 115.8ZM104.967 114.964L104.852 113.971C104.805 113.976 104.759 113.985 104.714 113.997L104.967 114.964ZM99.9384 115.076L99.7279 116.053H99.728L99.9384 115.076ZM96.0308 112.127C95.6017 111.779 94.972 111.845 94.6244 112.275C94.2767 112.704 94.3428 113.333 94.772 113.681L96.0308 112.127ZM303.898 150.057C303.346 150.036 302.882 150.467 302.862 151.019C302.842 151.571 303.273 152.035 303.824 152.055L303.898 150.057ZM325.559 151.094L326.481 151.482C326.612 151.17 326.577 150.813 326.387 150.533C326.198 150.253 325.879 150.088 325.541 150.094L325.559 151.094ZM307.359 179.176L307.204 180.164C307.532 180.215 307.863 180.101 308.09 179.859L307.359 179.176ZM299.516 177.342C298.965 177.308 298.491 177.728 298.457 178.279C298.423 178.83 298.843 179.304 299.394 179.338L299.516 177.342ZM368.725 152.728L367.754 152.964L367.754 152.965L368.725 152.728ZM337.033 175.718L336.405 174.94L336.401 174.943L337.033 175.718ZM327.233 181.494L327.414 182.478C327.479 182.466 327.543 182.447 327.604 182.423L327.233 181.494ZM319.433 181.342L319.035 180.425C318.638 180.597 318.397 181.005 318.438 181.436C318.478 181.867 318.792 182.223 319.214 182.318L319.433 181.342ZM329.929 175L330.556 175.779L330.557 175.778L329.929 175ZM325.601 151.094L325.581 150.094C325.186 150.102 324.833 150.342 324.68 150.705L325.601 151.094ZM329.889 174.996L329.262 174.217L329.262 174.217L329.889 174.996ZM319.401 181.342L319.245 182.33C319.433 182.359 319.626 182.335 319.8 182.259L319.401 181.342ZM307.355 179.176L306.626 178.492C306.372 178.763 306.289 179.152 306.41 179.503C306.531 179.853 306.837 180.108 307.204 180.164L307.355 179.176ZM248.845 270.59C248.879 270.039 248.458 269.565 247.907 269.532C247.356 269.499 246.882 269.919 246.849 270.47L248.845 270.59ZM248.303 293.254L247.949 294.189C248.265 294.309 248.62 294.261 248.893 294.062C249.166 293.862 249.32 293.539 249.302 293.201L248.303 293.254ZM219.575 276.078L218.582 275.961C218.543 276.29 218.67 276.616 218.919 276.833L219.575 276.078ZM220.993 270.399C221.005 269.847 220.566 269.39 220.014 269.378C219.462 269.367 219.005 269.805 218.993 270.357L220.993 270.399ZM249.557 332.622L250.552 332.725C250.588 332.373 250.436 332.029 250.152 331.818L249.557 332.622ZM248.227 336.422L248.531 337.375L248.532 337.374L248.227 336.422ZM224.097 305.566L224.853 304.911L224.847 304.904L224.097 305.566ZM217.941 295.952L216.964 296.164C216.978 296.23 216.999 296.294 217.027 296.356L217.941 295.952ZM217.827 288.152L218.729 287.72C218.542 287.33 218.125 287.104 217.696 287.161C217.267 287.217 216.924 287.543 216.844 287.968L217.827 288.152ZM224.553 298.412L223.797 299.066L223.797 299.067L224.553 298.412ZM248.303 293.216L249.302 293.159C249.279 292.764 249.026 292.42 248.657 292.28L248.303 293.216ZM249.557 332.616L248.962 333.42C249.25 333.633 249.629 333.676 249.957 333.533C250.285 333.389 250.512 333.082 250.551 332.727L249.557 332.616ZM224.557 298.416L223.801 299.07L223.801 299.07L224.557 298.416ZM217.831 288.156L216.839 288.032C216.815 288.222 216.847 288.416 216.93 288.589L217.831 288.156ZM219.541 276.032L220.198 275.278C219.918 275.034 219.526 274.966 219.18 275.099C218.835 275.233 218.591 275.547 218.548 275.916L219.541 276.032ZM132.798 193.069C133.294 193.313 133.893 193.109 134.137 192.613C134.38 192.117 134.176 191.518 133.68 191.274L132.798 193.069ZM118.613 172.108C118.256 171.686 117.625 171.634 117.204 171.99C116.782 172.347 116.729 172.978 117.086 173.4L118.613 172.108ZM136.507 189.554L137.001 188.684C136.996 188.681 136.991 188.679 136.986 188.676L136.507 189.554ZM147.375 191.416L147.551 192.4C147.558 192.399 147.566 192.398 147.573 192.396L147.375 191.416ZM201.069 164.246L201.799 164.929L201.799 164.929L201.069 164.246ZM212.849 118.304L211.851 118.368L211.851 118.368L212.849 118.304ZM210.189 114.304L209.238 113.997L209.237 113.997L210.189 114.304ZM204.413 138.092L203.469 137.761C203.467 137.768 203.465 137.775 203.462 137.782L204.413 138.092ZM203.425 139.346L203.921 140.214C203.93 140.209 203.939 140.204 203.948 140.198L203.425 139.346ZM200.425 135.926L199.465 136.205L199.465 136.205L200.425 135.926ZM198.411 127.726L197.464 128.046L197.464 128.047L198.411 127.726ZM194.231 131.488L193.232 131.451L193.232 131.451L194.231 131.488ZM187.087 152.768L187.583 153.637L187.59 153.633L187.087 152.768ZM170.367 160.672L170.01 159.738L170.003 159.741L170.367 160.672ZM151.785 165.232L151.839 166.231C151.857 166.23 151.875 166.228 151.893 166.226L151.785 165.232ZM140.095 154.767C139.772 154.319 139.147 154.218 138.699 154.541C138.251 154.863 138.149 155.488 138.472 155.937L140.095 154.767ZM205.148 131.53C205.026 132.069 205.363 132.605 205.902 132.727C206.44 132.85 206.976 132.512 207.098 131.974L205.148 131.53ZM212.507 103.67L211.533 103.445L211.532 103.448L212.507 103.67ZM212.205 101.875L213.053 101.345L213.052 101.343L212.205 101.875ZM210.721 100.82L210.945 99.8454L210.945 99.8453L210.721 100.82ZM208.927 101.123L209.457 101.971L209.459 101.97L208.927 101.123ZM207.871 102.606L206.897 102.381L206.896 102.384L207.871 102.606ZM199.372 135.482C199.25 136.021 199.587 136.557 200.126 136.679C200.664 136.801 201.2 136.464 201.322 135.926L199.372 135.482ZM217.801 209.08L217.407 208.161L217.403 208.163L217.801 209.08ZM227.869 204.712L228.793 205.095C228.949 204.718 228.861 204.283 228.569 203.997C228.277 203.712 227.84 203.632 227.466 203.797L227.869 204.712ZM217.397 227.357C217.186 227.867 217.428 228.452 217.938 228.664C218.448 228.875 219.033 228.633 219.245 228.123L217.397 227.357ZM137.132 190.331C137.563 189.986 137.633 189.357 137.288 188.925C136.943 188.494 136.314 188.424 135.883 188.769L137.132 190.331ZM89.2012 167.776L90.1807 167.574C90.1793 167.568 90.1779 167.561 90.1764 167.554L89.2012 167.776ZM208.621 152.377C208.112 152.593 207.875 153.18 208.091 153.689C208.306 154.197 208.893 154.434 209.402 154.219L208.621 152.377ZM226.833 145.736L226.444 144.815L226.443 144.815L226.833 145.736ZM240.817 143.418L240.892 142.421L240.888 142.421L240.817 143.418ZM303.557 148.092L304.551 147.985C304.5 147.505 304.113 147.131 303.632 147.095L303.557 148.092ZM298.389 180.316L298.399 181.316C298.758 181.313 299.089 181.116 299.263 180.802L298.389 180.316ZM246.014 179.81C245.462 179.815 245.018 180.267 245.023 180.819C245.028 181.372 245.48 181.815 246.033 181.81L246.014 179.81ZM115.455 73.042L114.573 73.5128C114.747 73.8385 115.086 74.042 115.455 74.042V73.042ZM80.5332 106.33L80.9645 107.232C81.3445 107.05 81.57 106.65 81.5283 106.231L80.5332 106.33ZM59.2132 124.19L58.379 123.639L58.3789 123.639L59.2132 124.19ZM87.4532 144.938L88.4507 145.009L88.4508 145.008L87.4532 144.938ZM97.6372 106.444L98.5833 106.768L98.5847 106.764L97.6372 106.444ZM101.779 93.408L102.745 93.6678L102.747 93.66L101.779 93.408ZM103.907 85.392L104.859 85.6985C104.977 85.3326 104.875 84.9317 104.596 84.667L103.907 85.392ZM107.251 80.032L106.386 80.5341C106.39 80.5394 106.393 80.5447 106.396 80.5499L107.251 80.032ZM109.747 82.122L109.434 83.0716L109.435 83.0719L109.747 82.122ZM126.593 83.522L127.425 84.0767C127.659 83.7258 127.648 83.266 127.397 82.9271C127.146 82.5881 126.71 82.443 126.306 82.5641L126.593 83.522ZM40.4414 79.576L40.8759 80.4767C40.9151 80.4577 40.9531 80.4363 40.9895 80.4124L40.4414 79.576ZM2.66936 103.518L3.19768 104.367C3.23274 104.345 3.26641 104.321 3.29851 104.295L2.66936 103.518ZM1.54822 105.425L2.54704 105.474L2.54704 105.474L1.54822 105.425ZM1.76668 106.543L2.67382 106.122L2.67373 106.122L1.76668 106.543ZM2.47936 107.432L3.10111 106.649C3.09651 106.645 3.09188 106.641 3.08721 106.638L2.47936 107.432ZM11.1434 114.31L10.5217 115.093C10.732 115.26 11.0008 115.336 11.2673 115.302C11.5338 115.269 11.7758 115.13 11.9387 114.916L11.1434 114.31ZM30.6634 95.592L31.4546 96.2036C31.7671 95.7993 31.7246 95.2244 31.3559 94.8705C30.9873 94.5167 30.4111 94.4977 30.02 94.8265L30.6634 95.592ZM16.2634 118.364L15.3717 117.911C15.1564 118.335 15.2697 118.853 15.6425 119.148L16.2634 118.364ZM25.5854 125.748L26.2072 124.965L26.2063 124.964L25.5854 125.748ZM29.3474 124.646L28.4027 124.318L28.4015 124.322L29.3474 124.646ZM44.0134 82.4L43.0729 82.06L43.0687 82.072L44.0134 82.4ZM44.0648 80.9264L45.0267 80.6527L45.0266 80.6524L44.0648 80.9264ZM43.245 79.701L42.6249 80.4855L42.6249 80.4855L43.245 79.701ZM41.8632 79.186L41.8187 80.185H41.8187L41.8632 79.186ZM298.085 7.14996L297.64 8.04519C297.653 8.05191 297.667 8.05833 297.681 8.06443L298.085 7.14996ZM283.265 16.65L283.944 17.3844C284.188 17.1587 284.304 16.8264 284.254 16.4978L283.265 16.65ZM279.731 19.916L279.053 19.1816C278.761 19.4513 278.656 19.8683 278.786 20.2438C278.917 20.6193 279.257 20.882 279.653 20.9129L279.731 19.916ZM284.595 20.296L285.456 19.7868C285.29 19.5064 284.998 19.3244 284.673 19.299L284.595 20.296ZM303.367 20.714L304.262 21.1611C304.269 21.1457 304.277 21.13 304.284 21.1142L303.367 20.714ZM339.389 225.648L339.474 224.652H339.474L339.389 225.648ZM335.571 226.074L335.268 225.121L335.268 225.121L335.571 226.074ZM332.211 227.93L332.856 228.694L332.857 228.693L332.211 227.93ZM329.815 230.932L328.927 230.472L328.925 230.476L329.815 230.932ZM317.997 243.092L318.068 242.094C317.595 242.061 317.163 242.365 317.035 242.821C316.906 243.278 317.116 243.762 317.538 243.98L317.997 243.092ZM344.825 256.962L344.366 257.85C344.788 258.069 345.306 257.96 345.604 257.589C345.902 257.219 345.899 256.691 345.596 256.325L344.825 256.962ZM347.295 239.978L346.407 239.518C346.4 239.531 346.394 239.545 346.388 239.558L347.295 239.978ZM348.361 236.288L347.365 236.203L347.365 236.204L348.361 236.288ZM336.708 252.785C336.961 252.294 336.769 251.691 336.278 251.437C335.787 251.184 335.184 251.376 334.931 251.867L336.708 252.785ZM332.915 254.776L333.218 255.729L333.219 255.729L332.915 254.776ZM326.681 251.55L325.728 251.852L325.729 251.854L326.681 251.55ZM327.892 248.225C328.145 247.734 327.953 247.131 327.462 246.877C326.971 246.624 326.368 246.816 326.115 247.307L327.892 248.225ZM373.298 81.8328C373.452 81.3024 373.146 80.7476 372.616 80.5936C372.086 80.4396 371.531 80.7447 371.377 81.2751L373.298 81.8328ZM364.271 105.747C364.117 106.277 364.422 106.832 364.952 106.986C365.483 107.14 366.038 106.835 366.192 106.305L364.271 105.747ZM380.722 98.2843C381.253 98.4383 381.808 98.1332 381.962 97.6028C382.116 97.0724 381.81 96.5176 381.28 96.3636L380.722 98.2843ZM356.808 89.2576C356.278 89.1036 355.723 89.4087 355.569 89.9391C355.415 90.4695 355.72 91.0243 356.25 91.1783L356.808 89.2576ZM218.522 256.241C217.977 256.152 217.462 256.521 217.372 257.066C217.283 257.611 217.652 258.125 218.197 258.215L218.522 256.241ZM251.127 258.82C251.675 258.75 252.063 258.25 251.993 257.702C251.924 257.154 251.423 256.766 250.875 256.836L251.127 258.82ZM290.03 146.955C289.948 146.409 289.439 146.033 288.893 146.115C288.347 146.197 287.97 146.706 288.052 147.252L290.03 146.955ZM282.865 180.021C282.618 180.515 282.818 181.116 283.312 181.363C283.807 181.609 284.407 181.409 284.654 180.915L282.865 180.021ZM160.789 284.286L159.809 284.482L159.81 284.486L160.789 284.286ZM160.433 288.12L159.507 287.742L159.507 287.742L160.433 288.12ZM158.007 291.11L158.566 291.939L158.567 291.938L158.007 291.11ZM154.328 292.248L154.333 293.248L154.335 293.248L154.328 292.248ZM148.179 288.188L147.257 288.576L147.257 288.576L148.179 288.188ZM149.576 280.952L148.865 280.249L148.865 280.249L149.576 280.952ZM152.961 279.118L153.163 280.098L153.168 280.096L152.961 279.118ZM155.552 279.094L155.364 280.076H155.364L155.552 279.094ZM157.953 280.07L157.401 280.904L157.403 280.905L157.953 280.07ZM157.787 263.5L157.104 262.77L157.104 262.77L157.787 263.5ZM166.974 258.98L167.136 259.967L167.136 259.967L166.974 258.98ZM184.816 267.082L183.967 267.609L183.967 267.61L184.816 267.082ZM187.458 276.974L186.459 276.94V276.94L187.458 276.974ZM184.16 286.666L183.347 286.083L183.347 286.083L184.16 286.666ZM165.814 293.554L165.587 294.528L165.814 293.554ZM156.951 288.428L156.221 289.111L156.221 289.111L156.951 288.428ZM152.21 275.79L151.21 275.756V275.756L152.21 275.79ZM183.973 223.754L184.37 224.672L184.371 224.671L183.973 223.754ZM217.761 269.77L216.764 269.694C216.729 270.161 217.022 270.59 217.47 270.727L217.761 269.77ZM249.415 270.074L249.688 271.036C250.067 270.929 250.347 270.609 250.405 270.22L249.415 270.074ZM246.033 180.81L245.191 181.349L245.191 181.349L246.033 180.81ZM189.104 172.069C188.578 172.24 188.291 172.805 188.462 173.33C188.633 173.855 189.198 174.142 189.723 173.971L189.104 172.069ZM102.983 101.582L103.791 100.993C103.495 100.586 102.941 100.463 102.5 100.706C102.059 100.95 101.868 101.483 102.054 101.952L102.983 101.582ZM106.09 112.096C106.294 112.609 106.876 112.859 107.389 112.655C107.902 112.451 108.153 111.869 107.948 111.356L106.09 112.096ZM200.183 25.35C200.183 29.8645 198.844 34.2776 196.336 38.0314L197.999 39.1425C200.727 35.06 202.183 30.2602 202.183 25.35H200.183ZM196.336 38.0314C193.828 41.7852 190.263 44.7108 186.092 46.4385L186.858 48.2862C191.394 46.4071 195.271 43.2251 197.999 39.1425L196.336 38.0314ZM186.092 46.4385C181.921 48.1662 177.332 48.6182 172.904 47.7374L172.514 49.6989C177.33 50.6569 182.321 50.1653 186.858 48.2862L186.092 46.4385ZM172.904 47.7374C168.476 46.8568 164.409 44.6828 161.217 41.4905L159.803 42.9046C163.275 46.3767 167.698 48.7412 172.514 49.6989L172.904 47.7374ZM161.217 41.4905C158.025 38.2981 155.851 34.2309 154.97 29.8031L153.008 30.1933C153.966 35.009 156.331 39.4326 159.803 42.9047L161.217 41.4905ZM154.97 29.8031C154.089 25.3753 154.541 20.7857 156.269 16.6148L154.421 15.8495C152.542 20.3858 152.05 25.3775 153.008 30.1932L154.97 29.8031ZM156.269 16.6149C157.996 12.444 160.922 8.87894 164.676 6.37083L163.565 4.70788C159.482 7.43577 156.3 11.3132 154.421 15.8495L156.269 16.6149ZM164.676 6.37083C168.43 3.86271 172.843 2.52396 177.357 2.52396V0.523956C172.447 0.523956 167.647 1.98001 163.565 4.70788L164.676 6.37083ZM177.357 2.52396C183.41 2.5276 189.214 4.93365 193.494 9.21371L194.908 7.7994C190.253 3.14466 183.941 0.527916 177.358 0.523956L177.357 2.52396ZM193.494 9.21355C197.773 13.4936 200.179 19.2978 200.183 25.3506L202.183 25.3493C202.179 18.7665 199.562 12.4543 194.908 7.79956L193.494 9.21355ZM252.831 223.807L272.477 233.725L273.378 231.939L253.732 222.021L252.831 223.807ZM272.478 233.725C276.746 235.874 281.694 236.243 286.234 234.75L285.609 232.85C281.572 234.177 277.172 233.85 273.377 231.939L272.478 233.725ZM286.233 234.75C290.775 233.257 294.538 230.024 296.697 225.76L294.913 224.856C292.993 228.648 289.647 231.523 285.609 232.85L286.233 234.75ZM296.698 225.759L319.194 181.223L317.409 180.321L294.913 224.857L296.698 225.759ZM333.444 153.027L347.314 125.591L345.529 124.689L331.659 152.125L333.444 153.027ZM347.314 125.59C349.464 121.321 349.832 116.374 348.339 111.834L346.439 112.459C347.767 116.496 347.439 120.895 345.528 124.69L347.314 125.59ZM348.339 111.834C346.846 107.294 343.613 103.531 339.349 101.372L338.445 103.156C342.237 105.076 345.112 108.422 346.439 112.459L348.339 111.834ZM339.348 101.371L200.526 31.2364L199.624 33.0215L338.446 103.157L339.348 101.371ZM122.276 123.851L162.552 44.0684L160.766 43.1671L120.491 122.949L122.276 123.851ZM346.908 110.093L230.968 128.789L231.286 130.763L347.226 112.067L346.908 110.093ZM232.016 129.318L189.16 46.0888L187.382 47.0043L230.238 130.234L232.016 129.318ZM166.861 228.587C158.302 237.998 147.936 245.588 136.38 250.903L137.216 252.72C149.016 247.292 159.601 239.542 168.341 229.933L166.861 228.587ZM136.38 250.904C124.823 256.221 112.315 259.156 99.6001 259.534L99.6595 261.534C112.643 261.148 125.415 258.151 137.216 252.72L136.38 250.904ZM99.6001 259.534C86.8851 259.912 74.2244 257.725 62.3727 253.104L61.6461 254.968C73.748 259.686 86.6761 261.92 99.6595 261.534L99.6001 259.534ZM62.3727 253.104C50.5212 248.483 39.7218 241.523 30.6187 232.638L29.2218 234.07C38.5171 243.141 49.5444 250.249 61.6461 254.968L62.3727 253.104ZM30.6187 232.638C21.5156 223.752 14.2952 213.126 9.38822 201.39L7.54302 202.162C12.5536 214.146 19.9265 224.996 29.2217 234.07L30.6187 232.638ZM9.38822 201.39C4.48129 189.654 1.98834 177.049 2.05806 164.329L0.0580938 164.318C-0.0131022 177.307 2.53247 190.178 7.54301 202.162L9.38822 201.39ZM2.05806 164.329C2.12779 151.609 4.75877 139.033 9.79408 127.351L7.95744 126.56C2.81582 138.488 0.12929 151.329 0.0580938 164.318L2.05806 164.329ZM9.79408 127.351C14.8294 115.67 22.1659 105.122 31.3658 96.3372L29.9846 94.8907C20.5905 103.861 13.0991 114.631 7.95744 126.56L9.79408 127.351ZM108.019 114.843C107.915 112.044 108.152 109.243 108.726 106.501L106.768 106.091C106.162 108.992 105.91 111.956 106.02 114.917L108.019 114.843ZM107.191 107.127C109.71 108.812 112.137 109.199 114.366 108.496C116.545 107.809 118.365 106.133 119.836 104.034L118.198 102.886C116.86 104.795 115.361 106.086 113.765 106.589C112.219 107.077 110.416 106.878 108.303 105.465L107.191 107.127ZM119.868 103.986C123.573 97.9892 125.475 91.0534 125.347 84.0058L123.347 84.0421C123.468 90.7061 121.67 97.2643 118.167 102.934L119.868 103.986ZM104.178 160.705C107.459 165.468 110.98 170.06 114.728 174.466L116.251 173.17C112.547 168.816 109.067 164.278 105.825 159.571L104.178 160.705ZM115.876 174.74C121.969 172.186 127.582 168.612 132.474 164.17L131.129 162.69C126.406 166.978 120.986 170.43 115.103 172.896L115.876 174.74ZM132.474 164.17C136.089 160.889 139.333 157.219 142.147 153.228L140.512 152.076C137.783 155.947 134.636 159.506 131.129 162.689L132.474 164.17ZM142.124 152.044C135.589 143.5 129.534 134.6 123.986 125.384L122.273 126.416C127.859 135.695 133.956 144.656 140.535 153.259L142.124 152.044ZM123.986 125.385C121.166 120.694 116.933 117.016 111.894 114.879L111.113 116.721C115.763 118.693 119.67 122.086 122.272 126.415L123.986 125.385ZM111.866 114.868C109.636 114.001 107.228 113.693 104.852 113.971L105.083 115.957C107.136 115.718 109.215 115.984 111.141 116.732L111.866 114.868ZM104.714 113.997C103.221 114.388 101.658 114.423 100.149 114.098L99.728 116.053C101.543 116.444 103.425 116.402 105.221 115.931L104.714 113.997ZM100.149 114.098C98.6406 113.773 97.2299 113.098 96.0308 112.127L94.772 113.681C96.215 114.85 97.9127 115.663 99.7279 116.053L100.149 114.098ZM303.824 152.055C309.021 152.246 319.304 152.208 325.577 152.094L325.541 150.094C319.275 150.208 309.037 150.246 303.898 150.057L303.824 152.055ZM324.638 150.706C320.323 160.959 314.226 170.367 306.629 178.493L308.09 179.859C315.848 171.561 322.075 161.953 326.481 151.482L324.638 150.706ZM307.514 178.188C305.54 177.878 301.404 177.457 299.516 177.342L299.394 179.338C301.231 179.451 305.303 179.866 307.204 180.164L307.514 178.188ZM364.862 152.236C365.914 152.384 366.717 152.571 367.253 152.778C367.521 152.882 367.679 152.974 367.761 153.038C367.844 153.104 367.783 153.087 367.754 152.964L369.697 152.491C369.584 152.028 369.287 151.693 368.995 151.464C368.701 151.234 368.345 151.056 367.974 150.912C367.23 150.625 366.254 150.412 365.14 150.256L364.862 152.236ZM367.754 152.965C367.775 153.05 367.774 153.364 367.282 154.019C366.819 154.637 366.058 155.371 365.017 156.211C362.944 157.885 359.951 159.826 356.557 161.919C349.832 166.066 341.549 170.792 336.405 174.94L337.661 176.496C342.674 172.454 350.762 167.843 357.607 163.621C360.998 161.53 364.09 159.529 366.273 157.767C367.361 156.889 368.272 156.033 368.882 155.219C369.464 154.443 369.939 153.485 369.697 152.491L367.754 152.965ZM336.401 174.943C333.525 177.291 330.309 179.187 326.862 180.565L327.604 182.423C331.241 180.969 334.633 178.969 337.666 176.493L336.401 174.943ZM327.053 180.51C324.601 180.96 322.085 180.913 319.652 180.366L319.214 182.318C321.91 182.923 324.698 182.976 327.414 182.478L327.053 180.51ZM319.832 182.259C323.679 180.588 327.286 178.409 330.556 175.779L329.302 174.221C326.172 176.739 322.719 178.824 319.035 180.425L319.832 182.259ZM330.557 175.778C335.476 171.812 343.037 167.352 350.028 163.115C353.505 161.007 356.836 158.958 359.583 157.072C362.303 155.205 364.553 153.431 365.787 151.865L364.216 150.627C363.19 151.93 361.172 153.555 358.451 155.423C355.756 157.273 352.471 159.296 348.991 161.405C342.069 165.6 334.354 170.148 329.302 174.221L330.557 175.778ZM325.621 152.094C331.266 151.979 339.049 151.723 346.469 151.643C353.906 151.562 360.866 151.66 364.858 152.236L365.144 150.256C360.973 149.654 353.857 149.562 346.447 149.643C339.02 149.724 331.184 149.981 325.581 150.094L325.621 152.094ZM364.218 150.624C363.191 151.919 361.172 153.539 358.449 155.405C355.752 157.253 352.464 159.276 348.982 161.386C342.053 165.585 334.329 170.141 329.262 174.217L330.516 175.775C335.451 171.805 343.022 167.336 350.018 163.096C353.499 160.988 356.831 158.938 359.579 157.055C362.3 155.191 364.551 153.423 365.785 151.867L364.218 150.624ZM329.262 174.217C326.134 176.735 322.684 178.823 319.002 180.425L319.8 182.259C323.646 180.585 327.249 178.405 330.516 175.775L329.262 174.217ZM319.557 180.354C317.772 180.072 315.834 179.696 313.794 179.305C311.762 178.916 309.636 178.514 307.507 178.187L307.204 180.164C309.292 180.484 311.384 180.88 313.418 181.27C315.445 181.658 317.42 182.042 319.245 182.33L319.557 180.354ZM308.085 179.86C315.86 171.566 322.103 161.957 326.523 151.483L324.68 150.705C320.352 160.962 314.239 170.37 306.626 178.492L308.085 179.86ZM246.849 270.47C246.503 276.236 246.849 284.692 247.305 293.307L249.302 293.201C248.845 284.564 248.507 276.223 248.845 270.59L246.849 270.47ZM248.658 292.319C238.252 288.377 228.628 282.622 220.231 275.323L218.919 276.833C227.494 284.286 237.322 290.163 247.949 294.189L248.658 292.319ZM220.568 276.195C220.799 274.233 220.954 272.262 220.993 270.399L218.993 270.357C218.956 272.142 218.807 274.047 218.582 275.961L220.568 276.195ZM248.563 332.519C248.451 333.593 248.3 334.402 248.117 334.945C248.026 335.217 247.941 335.378 247.88 335.463C247.819 335.548 247.825 335.501 247.923 335.469L248.532 337.374C248.974 337.233 249.289 336.931 249.507 336.626C249.724 336.322 249.886 335.96 250.012 335.584C250.266 334.832 250.435 333.851 250.552 332.725L248.563 332.519ZM247.924 335.469C247.852 335.492 247.556 335.519 246.889 335.062C246.26 334.632 245.501 333.905 244.625 332.898C242.878 330.892 240.827 327.965 238.609 324.638C234.214 318.045 229.18 309.897 224.852 304.911L223.342 306.221C227.559 311.081 232.471 319.036 236.945 325.747C239.161 329.072 241.276 332.097 243.116 334.211C244.033 335.264 244.923 336.14 245.759 336.713C246.557 337.259 247.543 337.69 248.531 337.375L247.924 335.469ZM224.847 304.904C222.383 302.111 220.362 298.956 218.856 295.548L217.027 296.356C218.616 299.952 220.748 303.281 223.347 306.228L224.847 304.904ZM218.919 295.74C218.391 293.304 218.353 290.786 218.81 288.335L216.844 287.968C216.338 290.682 216.38 293.468 216.964 296.164L218.919 295.74ZM216.926 288.584C218.74 292.369 221.051 295.893 223.797 299.066L225.309 297.758C222.68 294.719 220.466 291.343 218.729 287.72L216.926 288.584ZM223.797 299.067C227.942 303.85 232.684 311.245 237.175 318.077C239.409 321.475 241.578 324.729 243.559 327.407C245.52 330.059 247.367 332.245 248.962 333.426L250.152 331.818C248.822 330.833 247.13 328.871 245.167 326.218C243.223 323.59 241.082 320.379 238.846 316.978C234.398 310.212 229.564 302.668 225.309 297.757L223.797 299.067ZM247.305 293.273C247.629 298.916 248.169 306.692 248.516 314.106C248.863 321.538 249.009 328.497 248.563 332.505L250.551 332.727C251.017 328.535 250.859 321.417 250.513 314.012C250.166 306.588 249.623 298.764 249.302 293.159L247.305 293.273ZM250.152 331.812C248.822 330.827 247.128 328.865 245.163 326.21C243.217 323.582 241.073 320.37 238.836 316.97C234.385 310.203 229.552 302.662 225.314 297.762L223.801 299.07C227.93 303.844 232.671 311.237 237.165 318.069C239.401 321.467 241.572 324.721 243.555 327.4C245.519 330.053 247.367 332.239 248.962 333.42L250.152 331.812ZM225.314 297.762C222.686 294.721 220.472 291.345 218.733 287.723L216.93 288.589C218.746 292.371 221.057 295.895 223.801 299.07L225.314 297.762ZM218.824 288.28C219.05 286.472 219.351 284.511 219.661 282.457C219.97 280.409 220.285 278.275 220.534 276.148L218.548 275.916C218.303 278.007 217.992 280.111 217.683 282.159C217.375 284.2 217.069 286.192 216.839 288.032L218.824 288.28ZM218.885 276.786C227.466 284.252 237.309 290.132 247.95 294.151L248.657 292.28C238.237 288.344 228.6 282.588 220.198 275.278L218.885 276.786ZM133.68 191.274C125.199 187.108 118.343 179.457 113.54 172.67C108.746 165.897 106.07 160.089 105.919 159.74L104.084 160.536C104.279 160.985 107.019 166.919 111.907 173.826C116.786 180.719 123.876 188.686 132.798 193.069L133.68 191.274ZM117.086 173.4C122.498 179.798 129.362 186.794 136.028 190.432L136.986 188.676C130.665 185.226 124.001 178.478 118.613 172.108L117.086 173.4ZM136.014 190.424C139.512 192.407 143.593 193.105 147.551 192.4L147.2 190.431C143.7 191.055 140.093 190.437 137.001 188.684L136.014 190.424ZM147.573 192.396C155.639 190.769 167.202 186.017 177.689 180.656C182.945 177.97 187.955 175.119 192.15 172.408C196.329 169.708 199.756 167.112 201.799 164.929L200.339 163.562C198.468 165.56 195.21 168.05 191.065 170.728C186.937 173.396 181.987 176.214 176.779 178.876C166.342 184.21 154.972 188.863 147.178 190.436L147.573 192.396ZM201.799 164.929C208.998 157.242 212.354 150.404 213.721 143.005C215.075 135.67 214.46 127.826 213.847 118.24L211.851 118.368C212.47 128.049 213.053 135.606 211.754 142.641C210.467 149.61 207.317 156.11 200.339 163.562L201.799 164.929ZM213.847 118.24C213.721 116.269 213.563 114.771 213.373 113.691C213.278 113.152 213.171 112.693 213.046 112.321C212.931 111.976 212.766 111.595 212.496 111.312C212.35 111.16 212.139 111 211.856 110.925C211.56 110.846 211.274 110.883 211.034 110.982C210.618 111.154 210.35 111.505 210.193 111.746C209.849 112.275 209.533 113.081 209.238 113.997L211.141 114.611C211.433 113.707 211.682 113.125 211.868 112.839C211.977 112.672 211.966 112.761 211.798 112.83C211.682 112.878 211.518 112.904 211.34 112.857C211.176 112.813 211.082 112.728 211.05 112.694C211.008 112.65 211.06 112.687 211.15 112.956C211.231 113.198 211.317 113.551 211.403 114.038C211.575 115.011 211.727 116.425 211.851 118.368L213.847 118.24ZM209.237 113.997C208.343 116.773 207.341 121.488 206.349 126.078C205.345 130.727 204.353 135.241 203.469 137.761L205.357 138.423C206.292 135.755 207.312 131.091 208.304 126.501C209.308 121.852 210.285 117.267 211.141 114.611L209.237 113.997ZM203.462 137.782C203.366 138.079 203.167 138.331 202.902 138.494L203.948 140.198C204.619 139.786 205.121 139.149 205.364 138.402L203.462 137.782ZM202.929 138.478C202.841 138.528 202.792 138.539 202.776 138.541C202.764 138.543 202.764 138.542 202.763 138.541C202.751 138.538 202.645 138.496 202.469 138.262C202.104 137.775 201.744 136.879 201.385 135.647L199.465 136.205C199.825 137.443 200.265 138.657 200.87 139.463C201.179 139.875 201.601 140.275 202.171 140.452C202.778 140.64 203.383 140.522 203.921 140.214L202.929 138.478ZM201.385 135.647C201.016 134.376 200.698 132.886 200.375 131.411C200.058 129.964 199.734 128.511 199.358 127.405L197.464 128.047C197.797 129.027 198.098 130.363 198.421 131.839C198.738 133.286 199.072 134.854 199.465 136.205L201.385 135.647ZM199.359 127.406C199.034 126.445 198.613 125.465 198.136 124.711C197.9 124.336 197.623 123.973 197.302 123.697C196.991 123.429 196.526 123.147 195.946 123.183C195.332 123.22 194.885 123.591 194.59 124.004C194.302 124.407 194.087 124.941 193.916 125.566C193.571 126.824 193.334 128.729 193.232 131.451L195.231 131.525C195.331 128.85 195.562 127.128 195.845 126.094C195.987 125.573 196.126 125.295 196.217 125.167C196.303 125.047 196.262 125.167 196.068 125.179C195.908 125.189 195.875 125.107 195.997 125.212C196.108 125.308 196.263 125.49 196.445 125.778C196.806 126.35 197.167 127.168 197.464 128.046L199.359 127.406ZM193.232 131.451C193.113 134.662 193.05 138.873 192.179 142.789C191.307 146.715 189.671 150.111 186.585 151.903L187.59 153.633C191.396 151.421 193.214 147.35 194.131 143.223C195.051 139.087 195.114 134.66 195.231 131.525L193.232 131.451ZM186.592 151.899C181.273 154.93 175.729 157.551 170.01 159.738L170.725 161.606C176.539 159.383 182.174 156.719 187.583 153.637L186.592 151.899ZM170.003 159.741C164.12 162.045 157.958 163.557 151.678 164.238L151.893 166.226C158.35 165.526 164.685 163.971 170.732 161.603L170.003 159.741ZM151.732 164.233C150.379 164.305 148.601 163.557 146.519 161.877C144.468 160.223 142.267 157.782 140.095 154.767L138.472 155.937C140.708 159.04 143.028 161.631 145.263 163.434C147.464 165.21 149.734 166.342 151.839 166.231L151.732 164.233ZM207.098 131.974L213.482 103.892L211.532 103.448L205.148 131.53L207.098 131.974ZM213.482 103.895C213.684 103.02 213.527 102.103 213.053 101.345L211.357 102.405C211.552 102.716 211.615 103.091 211.533 103.445L213.482 103.895ZM213.052 101.343C212.575 100.585 211.817 100.046 210.945 99.8454L210.497 101.795C210.853 101.876 211.163 102.097 211.359 102.407L213.052 101.343ZM210.945 99.8453C210.073 99.645 209.155 99.7995 208.396 100.276L209.459 101.97C209.768 101.776 210.142 101.713 210.497 101.795L210.945 99.8453ZM208.397 100.275C207.635 100.751 207.098 101.51 206.897 102.381L208.846 102.831C208.928 102.473 209.148 102.164 209.457 101.971L208.397 100.275ZM206.896 102.384L199.372 135.482L201.322 135.926L208.846 102.828L206.896 102.384ZM218.196 209.999C221.162 208.725 223.68 207.632 225.458 206.858C226.346 206.471 227.05 206.163 227.531 205.952C227.772 205.847 227.957 205.766 228.082 205.711C228.144 205.683 228.192 205.663 228.224 205.648C228.24 205.641 228.252 205.636 228.26 205.633C228.264 205.631 228.267 205.63 228.269 205.629C228.27 205.628 228.271 205.628 228.271 205.628C228.271 205.627 228.272 205.627 228.272 205.627C228.272 205.627 228.272 205.627 228.272 205.627C228.272 205.627 228.272 205.627 227.869 204.712C227.466 203.797 227.466 203.797 227.466 203.797C227.466 203.797 227.466 203.797 227.466 203.797C227.466 203.797 227.466 203.797 227.466 203.797C227.465 203.797 227.464 203.798 227.463 203.798C227.461 203.799 227.459 203.8 227.455 203.802C227.447 203.805 227.435 203.811 227.419 203.818C227.387 203.832 227.34 203.852 227.278 203.88C227.153 203.934 226.969 204.015 226.728 204.12C226.248 204.331 225.546 204.638 224.659 205.024C222.884 205.798 220.369 206.889 217.407 208.161L218.196 209.999ZM226.945 204.329L217.397 227.357L219.245 228.123L228.793 205.095L226.945 204.329ZM135.883 188.769C128.736 194.485 121.245 199.756 113.449 204.548L114.497 206.252C122.362 201.416 129.922 196.099 137.132 190.331L135.883 188.769ZM114.546 204.58C101.989 195.816 93.2687 182.572 90.1807 167.574L88.2218 167.978C91.413 183.476 100.424 197.164 113.401 206.22L114.546 204.58ZM209.402 154.219L227.224 146.657L226.443 144.815L208.621 152.377L209.402 154.219ZM227.222 146.657C231.491 144.853 236.125 144.085 240.746 144.415L240.888 142.421C235.953 142.068 231.003 142.888 226.444 144.815L227.222 146.657ZM240.743 144.415L303.483 149.089L303.632 147.095L240.892 142.421L240.743 144.415ZM302.563 148.199C303.268 154.752 303.566 159.821 302.916 164.666C302.269 169.49 300.674 174.145 297.515 179.83L299.263 180.802C302.517 174.945 304.211 170.053 304.898 164.932C305.582 159.834 305.259 154.562 304.551 147.985L302.563 148.199ZM298.38 179.316L246.014 179.81L246.033 181.81L298.399 181.316L298.38 179.316ZM115.455 73.042C116.337 72.5711 116.337 72.5705 116.337 72.5699C116.337 72.5696 116.336 72.5689 116.336 72.5684C116.335 72.5673 116.335 72.566 116.334 72.5645C116.332 72.5616 116.33 72.5579 116.328 72.5535C116.323 72.5446 116.317 72.5328 116.308 72.5181C116.292 72.4888 116.269 72.4482 116.239 72.3972C116.179 72.2953 116.092 72.1519 115.976 71.9751C115.746 71.6217 115.403 71.1334 114.942 70.5756C114.021 69.4623 112.617 68.0569 110.685 66.9011C106.765 64.5552 100.83 63.3356 92.7123 67.2784L93.5861 69.0775C101.12 65.4183 106.338 66.6307 109.658 68.6173C111.347 69.6278 112.584 70.8638 113.4 71.8503C113.807 72.3423 114.106 72.7685 114.301 73.0672C114.398 73.2165 114.469 73.3334 114.514 73.4104C114.537 73.4489 114.553 73.4773 114.563 73.4947C114.568 73.5034 114.571 73.5094 114.573 73.5124C114.574 73.514 114.574 73.5148 114.574 73.5148C114.574 73.5149 114.574 73.5147 114.574 73.5144C114.574 73.5142 114.574 73.5138 114.574 73.5138C114.573 73.5133 114.573 73.5128 115.455 73.042ZM92.7123 67.2784C88.5389 69.3054 85.657 72.8423 83.6758 76.9083C81.6968 80.9699 80.5882 85.6141 79.9813 89.9666C79.3735 94.3254 79.263 98.435 79.3035 101.451C79.3238 102.961 79.3819 104.2 79.4352 105.064C79.4619 105.496 79.4873 105.835 79.5063 106.066C79.5157 106.182 79.5235 106.272 79.5291 106.332C79.5318 106.363 79.534 106.386 79.5356 106.402C79.5363 106.411 79.5369 106.417 79.5374 106.421C79.5376 106.423 79.5378 106.425 79.5379 106.426C79.5379 106.427 79.538 106.428 79.538 106.428C79.5381 106.428 79.5381 106.429 80.5332 106.33C81.5283 106.231 81.5283 106.231 81.5283 106.231C81.5283 106.231 81.5283 106.231 81.5283 106.231C81.5282 106.23 81.5281 106.229 81.528 106.228C81.5277 106.225 81.5272 106.22 81.5266 106.213C81.5253 106.2 81.5234 106.179 81.5209 106.152C81.5159 106.097 81.5086 106.013 81.4996 105.904C81.4817 105.684 81.4572 105.359 81.4314 104.941C81.3798 104.104 81.3231 102.898 81.3033 101.424C81.2637 98.4748 81.3724 94.4718 81.9621 90.2428C82.5527 86.0075 83.6199 81.5889 85.4737 77.7843C87.3255 73.9841 89.9336 70.8515 93.5861 69.0775L92.7123 67.2784ZM80.5332 106.33C80.1019 105.428 80.1016 105.428 80.1013 105.428C80.1012 105.428 80.1008 105.428 80.1005 105.428C80.0998 105.429 80.0989 105.429 80.0978 105.43C80.0956 105.431 80.0925 105.432 80.0886 105.434C80.0808 105.438 80.0697 105.443 80.0553 105.45C80.0266 105.464 79.9849 105.485 79.9308 105.512C79.8225 105.565 79.6648 105.645 79.4625 105.749C79.058 105.958 78.475 106.267 77.7538 106.673C76.3118 107.484 74.3137 108.682 72.0809 110.235C67.6278 113.333 62.183 117.884 58.379 123.639L60.0474 124.741C63.6534 119.286 68.8686 114.907 73.2231 111.877C75.394 110.367 77.3365 109.202 78.7342 108.416C79.4328 108.023 79.9945 107.725 80.3796 107.526C80.5721 107.427 80.7205 107.352 80.8196 107.303C80.8692 107.279 80.9065 107.26 80.9308 107.248C80.943 107.243 80.952 107.238 80.9576 107.235C80.9604 107.234 80.9624 107.233 80.9636 107.233C80.9642 107.232 80.9645 107.232 80.9647 107.232C80.9648 107.232 80.9647 107.232 80.9648 107.232C80.9647 107.232 80.9645 107.232 80.5332 106.33ZM58.3789 123.639C52.4857 132.556 50.9629 143.839 55.6315 152.951C60.3261 162.114 71.1147 168.776 89.2012 168.776V166.776C71.6018 166.776 61.6584 160.328 57.4114 152.039C53.1386 143.7 54.4647 133.189 60.0475 124.741L58.3789 123.639ZM90.1764 167.554C88.4969 160.165 87.9155 152.568 88.4507 145.009L86.4557 144.867C85.9066 152.623 86.5031 160.416 88.2261 167.998L90.1764 167.554ZM88.4508 145.008C89.3892 131.683 94.2279 119.49 98.5833 106.768L96.6911 106.12C92.3825 118.706 87.4173 131.213 86.4557 144.868L88.4508 145.008ZM98.5847 106.764C99.57 103.846 101.937 96.6701 102.745 93.6678L100.814 93.1481C100.025 96.0778 97.6805 103.19 96.6898 106.124L98.5847 106.764ZM102.747 93.66C103.487 90.8183 103.806 88.9695 104.859 85.6985L102.955 85.0854C101.881 88.4224 101.515 90.4536 100.812 93.1559L102.747 93.66ZM104.596 84.667C102.634 82.803 102.969 80.993 103.697 80.1173C104.087 79.6476 104.575 79.4388 104.991 79.4591C105.371 79.4775 105.901 79.6976 106.386 80.5341L108.116 79.5298C107.367 78.2393 106.286 77.5196 105.088 77.4614C103.928 77.4051 102.871 77.9828 102.159 78.8386C100.683 80.6139 100.58 83.6109 103.218 86.117L104.596 84.667ZM106.396 80.5499C106.936 81.4412 107.35 82.0304 107.869 82.4106C108.375 82.7818 108.972 82.9191 109.434 83.0716L110.061 81.1723C109.329 80.9308 109.222 80.9231 109.052 80.7978C108.893 80.6815 108.657 80.4227 108.107 79.514L106.396 80.5499ZM109.435 83.0719C110.946 83.5689 113.736 84.381 116.913 84.8428C120.072 85.3021 123.714 85.43 126.881 84.4798L126.306 82.5641C123.547 83.3919 120.243 83.3058 117.2 82.8636C114.175 82.4239 111.504 81.647 110.06 81.172L109.435 83.0719ZM125.761 82.9673C126.776 82.5388 127.582 83.3757 127.591 83.4491C127.592 83.4688 127.593 83.4972 127.593 83.5059C127.593 83.5183 127.593 83.5281 127.593 83.5282C127.593 83.5316 127.593 83.5338 127.593 83.5304C127.593 83.5263 127.593 83.5169 127.594 83.5051C127.594 83.4811 127.594 83.4464 127.594 83.402C127.594 83.3134 127.592 83.1875 127.585 83.0298C127.571 82.7147 127.538 82.271 127.46 81.7411C127.304 80.686 126.967 79.2629 126.23 77.8277C125.49 76.386 124.344 74.9258 122.58 73.8307C120.814 72.7347 118.49 72.042 115.455 72.042V74.042C118.177 74.042 120.124 74.66 121.525 75.5299C122.928 76.4007 123.846 77.5616 124.451 78.7407C125.059 79.9263 125.347 81.1236 125.481 82.0329C125.548 82.4852 125.575 82.8597 125.587 83.1169C125.592 83.2453 125.594 83.3442 125.594 83.4085C125.594 83.4406 125.594 83.4645 125.594 83.4797C125.594 83.4876 125.593 83.4931 125.593 83.4988C125.593 83.5004 125.593 83.5063 125.593 83.5122C125.593 83.5135 125.593 83.5242 125.593 83.5372C125.593 83.5462 125.595 83.5749 125.596 83.5946C125.604 83.6681 126.411 84.5051 127.425 84.0767L125.761 82.9673ZM40.007 78.6753C26.4661 85.2068 13.7258 93.2822 2.04021 102.741L3.29851 104.295C14.8642 94.9338 27.4739 86.9412 40.8759 80.4767L40.007 78.6753ZM2.14104 102.669C1.67667 102.958 1.28915 103.355 1.01186 103.827L2.73602 104.84C2.84929 104.648 3.00765 104.485 3.19768 104.367L2.14104 102.669ZM1.01186 103.827C0.7346 104.298 0.575919 104.83 0.549395 105.377L2.54704 105.474C2.55788 105.25 2.62272 105.033 2.73602 104.84L1.01186 103.827ZM0.549398 105.377C0.522846 105.923 0.629288 106.468 0.859629 106.964L2.67373 106.122C2.57971 105.92 2.53619 105.697 2.54704 105.474L0.549398 105.377ZM0.859537 106.964C1.08979 107.46 1.43703 107.893 1.87151 108.226L3.08721 106.638C2.90981 106.502 2.76793 106.325 2.67382 106.122L0.859537 106.964ZM1.8576 108.215L10.5217 115.093L11.7652 113.527L3.10111 106.649L1.8576 108.215ZM11.9387 114.916C17.1068 108.138 24.1252 102.394 31.3069 96.3574L30.02 94.8265C22.8977 100.814 15.68 106.71 10.3482 113.704L11.9387 114.916ZM29.8722 94.9804C24.3288 102.151 19.4739 109.829 15.3717 117.911L17.1551 118.817C21.2005 110.846 25.988 103.275 31.4546 96.2036L29.8722 94.9804ZM15.6425 119.148L24.9645 126.532L26.2063 124.964L16.8843 117.58L15.6425 119.148ZM24.9637 126.531C25.39 126.87 25.8913 127.101 26.4254 127.205L26.8086 125.242C26.5887 125.199 26.3825 125.104 26.2072 124.965L24.9637 126.531ZM26.4254 127.205C26.9596 127.309 27.5107 127.284 28.0328 127.131L27.4704 125.211C27.2553 125.274 27.0285 125.285 26.8086 125.242L26.4254 127.205ZM28.0328 127.131C28.5548 126.978 29.0328 126.702 29.4263 126.326L28.0442 124.88C27.8825 125.035 27.6857 125.148 27.4704 125.211L28.0328 127.131ZM29.4263 126.326C29.8193 125.95 30.1168 125.485 30.2934 124.97L28.4015 124.322C28.3288 124.533 28.2063 124.725 28.0442 124.88L29.4263 126.326ZM30.2921 124.974L44.9581 82.7279L43.0687 82.072L28.4027 124.318L30.2921 124.974ZM44.9539 82.7399C45.1963 82.0691 45.2218 81.3389 45.0267 80.6527L43.103 81.2C43.1834 81.4827 43.1729 81.7836 43.073 82.06L44.9539 82.7399ZM45.0266 80.6524C44.8311 79.9664 44.4249 79.3589 43.8651 78.9164L42.6249 80.4855C42.8551 80.6674 43.0225 80.9176 43.1031 81.2003L45.0266 80.6524ZM43.8652 78.9165C43.3054 78.474 42.6206 78.2187 41.9077 78.187L41.8187 80.185C42.1122 80.198 42.3942 80.3031 42.6249 80.4855L43.8652 78.9165ZM41.9077 78.187C41.1952 78.1552 40.4902 78.3484 39.8933 78.7395L40.9895 80.4124C41.235 80.2515 41.5253 80.1719 41.8187 80.185L41.9077 78.187ZM298.531 6.25473C294.436 4.21654 290.054 4.63583 286.846 6.68296C283.627 8.73678 281.604 12.4295 282.277 16.8021L284.254 16.4978C283.711 12.9704 285.317 10.0311 287.921 8.36896C290.537 6.7001 294.172 6.31938 297.64 8.04519L298.531 6.25473ZM282.587 15.9156L279.053 19.1816L280.41 20.6504L283.944 17.3844L282.587 15.9156ZM279.653 20.9129L284.517 21.2929L284.673 19.299L279.809 18.919L279.653 20.9129ZM283.735 20.8051C286.074 24.7591 290.207 26.8081 294.228 26.9062C298.252 27.0043 302.272 25.1417 304.262 21.1611L302.473 20.2668C300.891 23.4322 297.672 24.9896 294.276 24.9068C290.877 24.8238 287.411 23.0908 285.456 19.7868L283.735 20.8051ZM304.284 21.1142C305.482 18.3716 305.543 15.2668 304.457 12.4788L302.593 13.2047C303.488 15.5003 303.437 18.0563 302.451 20.3137L304.284 21.1142ZM304.457 12.4788C303.371 9.69076 301.226 7.44605 298.49 6.23549L297.681 8.06443C299.933 9.06107 301.699 10.9092 302.593 13.2047L304.457 12.4788ZM343.537 225.826C342.272 225.171 340.891 224.773 339.474 224.652L339.304 226.644C340.46 226.743 341.586 227.068 342.618 227.602L343.537 225.826ZM339.474 224.652C338.056 224.53 336.626 224.689 335.268 225.121L335.874 227.027C336.98 226.675 338.147 226.545 339.304 226.644L339.474 224.652ZM335.268 225.121C333.913 225.553 332.653 226.247 331.565 227.166L332.857 228.693C333.742 227.945 334.769 227.379 335.875 227.027L335.268 225.121ZM331.566 227.166C330.478 228.084 329.581 229.208 328.927 230.472L330.703 231.392C331.237 230.36 331.969 229.443 332.856 228.694L331.566 227.166ZM329.815 230.932C328.925 230.476 328.925 230.476 328.925 230.476C328.925 230.476 328.925 230.476 328.925 230.476C328.925 230.476 328.925 230.477 328.925 230.477C328.924 230.478 328.923 230.48 328.922 230.483C328.919 230.488 328.915 230.496 328.909 230.507C328.898 230.529 328.88 230.562 328.857 230.607C328.811 230.695 328.741 230.825 328.65 230.992C328.469 231.326 328.202 231.805 327.865 232.38C327.19 233.53 326.238 235.054 325.125 236.561C324.007 238.075 322.755 239.534 321.484 240.582C320.186 241.652 319.028 242.162 318.068 242.094L317.927 244.089C319.664 244.212 321.332 243.299 322.756 242.125C324.207 240.928 325.572 239.323 326.734 237.749C327.902 236.168 328.892 234.581 329.59 233.392C329.939 232.796 330.217 232.298 330.407 231.948C330.503 231.773 330.576 231.634 330.626 231.539C330.652 231.491 330.671 231.454 330.684 231.429C330.691 231.416 330.696 231.406 330.699 231.399C330.701 231.396 330.703 231.393 330.704 231.391C330.704 231.39 330.704 231.389 330.705 231.389C330.705 231.389 330.705 231.388 330.705 231.388C330.705 231.388 330.705 231.388 329.815 230.932ZM317.538 243.98L344.366 257.85L345.284 256.074L318.456 242.204L317.538 243.98ZM345.596 256.325C344.97 255.568 344.685 254.296 344.752 252.584C344.817 250.907 345.211 249 345.726 247.174C346.239 245.355 346.859 243.658 347.353 242.412C347.599 241.791 347.813 241.284 347.965 240.934C348.041 240.759 348.101 240.624 348.142 240.532C348.162 240.487 348.178 240.452 348.188 240.43C348.193 240.419 348.197 240.41 348.2 240.405C348.201 240.402 348.202 240.4 348.202 240.399C348.202 240.399 348.203 240.398 348.203 240.398C348.203 240.398 348.203 240.398 348.203 240.398C348.203 240.398 348.203 240.398 347.295 239.978C346.388 239.558 346.388 239.558 346.388 239.558C346.387 239.558 346.387 239.559 346.387 239.559C346.387 239.56 346.387 239.56 346.386 239.561C346.385 239.563 346.384 239.566 346.382 239.57C346.379 239.577 346.374 239.587 346.369 239.6C346.357 239.626 346.339 239.664 346.317 239.713C346.273 239.812 346.209 239.955 346.13 240.138C345.971 240.505 345.749 241.031 345.493 241.675C344.984 242.961 344.338 244.726 343.801 246.631C343.266 248.528 342.827 250.606 342.753 252.506C342.681 254.37 342.951 256.266 344.055 257.599L345.596 256.325ZM348.183 240.438C348.837 239.174 349.239 237.792 349.358 236.372L347.365 236.204C347.268 237.36 346.941 238.486 346.407 239.518L348.183 240.438ZM349.358 236.373C349.479 234.955 349.32 233.527 348.888 232.169L346.982 232.775C347.334 233.881 347.464 235.045 347.365 236.203L349.358 236.373ZM348.888 232.169C348.456 230.812 347.762 229.554 346.843 228.465L345.315 229.755C346.064 230.642 346.63 231.668 346.982 232.775L348.888 232.169ZM346.843 228.465C345.925 227.377 344.801 226.48 343.537 225.826L342.618 227.602C343.649 228.136 344.566 228.867 345.315 229.755L346.843 228.465ZM334.931 251.867C334.449 252.8 333.614 253.503 332.611 253.823L333.219 255.729C334.724 255.249 335.981 254.192 336.708 252.785L334.931 251.867ZM332.613 253.823C331.611 254.141 330.525 254.048 329.59 253.565L328.673 255.343C330.077 256.068 331.711 256.207 333.218 255.729L332.613 253.823ZM329.59 253.565C328.657 253.084 327.954 252.249 327.634 251.246L325.729 251.854C326.209 253.359 327.265 254.616 328.673 255.343L329.59 253.565ZM327.634 251.247C327.317 250.246 327.409 249.16 327.892 248.225L326.115 247.307C325.389 248.712 325.25 250.346 325.728 251.852L327.634 251.247ZM371.377 81.2751L364.271 105.747L366.192 106.305L373.298 81.8328L371.377 81.2751ZM381.28 96.3636L356.808 89.2576L356.25 91.1783L380.722 98.2843L381.28 96.3636ZM218.197 258.215C229.086 260.006 240.179 260.21 251.127 258.82L250.875 256.836C240.119 258.202 229.22 258.002 218.522 256.241L218.197 258.215ZM288.052 147.252C289.734 158.449 287.923 169.891 282.865 180.021L284.654 180.915C289.896 170.417 291.773 158.559 290.03 146.955L288.052 147.252ZM159.81 284.486C160.033 285.579 159.928 286.712 159.507 287.742L161.359 288.498C161.929 287.1 162.072 285.565 161.769 284.086L159.81 284.486ZM159.507 287.742C159.086 288.773 158.369 289.656 157.446 290.282L158.567 291.938C159.817 291.091 160.789 289.895 161.359 288.498L159.507 287.742ZM157.447 290.281C156.524 290.905 155.437 291.241 154.322 291.248L154.335 293.248C155.843 293.239 157.316 292.783 158.566 291.939L157.447 290.281ZM154.324 291.248C153.209 291.253 152.118 290.928 151.189 290.315L150.087 291.985C151.347 292.815 152.824 293.255 154.333 293.248L154.324 291.248ZM151.189 290.315C150.26 289.702 149.533 288.826 149.101 287.8L147.257 288.576C147.843 289.966 148.827 291.154 150.087 291.985L151.189 290.315ZM149.101 287.8C148.669 286.772 148.551 285.641 148.762 284.547L146.798 284.168C146.512 285.651 146.672 287.183 147.257 288.576L149.101 287.8ZM148.762 284.547C148.973 283.453 149.504 282.446 150.287 281.655L148.865 280.249C147.804 281.322 147.084 282.686 146.798 284.168L148.762 284.547ZM150.287 281.655C151.07 280.864 152.071 280.322 153.163 280.098L152.76 278.138C151.282 278.442 149.927 279.176 148.865 280.249L150.287 281.655ZM153.168 280.096C153.891 279.944 154.638 279.937 155.364 280.076L155.74 278.112C154.753 277.923 153.739 277.932 152.755 278.139L153.168 280.096ZM155.364 280.076C156.093 280.216 156.785 280.496 157.401 280.904L158.505 279.236C157.665 278.68 156.726 278.3 155.74 278.112L155.364 280.076ZM157.403 280.905C158.02 281.312 158.551 281.838 158.964 282.452L160.623 281.336C160.063 280.502 159.342 279.788 158.504 279.235L157.403 280.905ZM158.964 282.452C159.377 283.067 159.664 283.755 159.809 284.482L161.77 284.09C161.573 283.105 161.184 282.169 160.623 281.336L158.964 282.452ZM158.47 264.23C160.874 261.983 163.889 260.499 167.136 259.967L166.812 257.993C163.175 258.589 159.796 260.253 157.104 262.77L158.47 264.23ZM167.136 259.967C170.383 259.433 173.715 259.874 176.711 261.235L177.537 259.413C174.181 257.89 170.449 257.395 166.812 257.993L167.136 259.967ZM176.711 261.235C179.706 262.595 182.232 264.813 183.967 267.609L185.666 266.555C183.722 263.423 180.894 260.937 177.537 259.413L176.711 261.235ZM183.967 267.61C185.702 270.403 186.569 273.652 186.459 276.94L188.458 277.008C188.581 273.324 187.61 269.685 185.666 266.554L183.967 267.61ZM186.459 276.94C186.349 280.229 185.266 283.409 183.347 286.083L184.972 287.249C187.121 284.254 188.334 280.691 188.458 277.007L186.459 276.94ZM183.347 286.083C181.429 288.756 178.761 290.799 175.68 291.956L176.383 293.828C179.834 292.533 182.823 290.244 184.972 287.249L183.347 286.083ZM175.68 291.956C172.6 293.112 169.246 293.329 166.042 292.58L165.587 294.528C169.176 295.367 172.933 295.124 176.383 293.828L175.68 291.956ZM166.042 292.58C162.839 291.831 159.929 290.149 157.682 287.745L156.221 289.111C158.738 291.803 161.998 293.689 165.587 294.528L166.042 292.58ZM157.682 287.745C154.67 284.521 153.061 280.235 153.209 275.823L151.21 275.756C151.044 280.697 152.847 285.499 156.221 289.111L157.682 287.745ZM153.209 275.824C153.357 271.414 155.249 267.245 158.471 264.23L157.104 262.77C153.496 266.147 151.376 270.817 151.21 275.756L153.209 275.824ZM113.973 205.4C113.03 205.731 113.03 205.732 113.03 205.733C113.03 205.733 113.031 205.735 113.031 205.736C113.032 205.738 113.033 205.74 113.034 205.744C113.037 205.751 113.04 205.76 113.044 205.772C113.053 205.795 113.065 205.829 113.081 205.872C113.114 205.958 113.161 206.082 113.225 206.241C113.353 206.56 113.546 207.017 113.81 207.588C114.339 208.728 115.153 210.322 116.304 212.155C118.605 215.819 122.266 220.459 127.7 224.34C138.636 232.15 156.517 236.718 184.37 224.672L183.576 222.836C156.249 234.654 139.131 230.045 128.862 222.712C123.693 219.021 120.2 214.598 117.998 211.092C116.898 209.34 116.123 207.822 115.625 206.747C115.376 206.21 115.197 205.784 115.081 205.495C115.023 205.351 114.981 205.241 114.954 205.169C114.94 205.133 114.93 205.106 114.924 205.089C114.921 205.081 114.919 205.075 114.918 205.071C114.917 205.07 114.917 205.069 114.917 205.068C114.916 205.068 114.917 205.068 114.917 205.068C114.917 205.068 114.917 205.069 113.973 205.4ZM184.371 224.671L218.199 209.997L217.403 208.163L183.575 222.837L184.371 224.671ZM216.802 209.106C217.222 225.097 218.103 252.051 216.764 269.694L218.758 269.846C220.107 252.073 219.22 224.99 218.801 209.054L216.802 209.106ZM217.47 270.727C227.958 273.92 239.141 274.028 249.688 271.036L249.142 269.112C238.965 271.999 228.173 271.895 218.053 268.813L217.47 270.727ZM250.405 270.22C252.48 256.128 254.322 237.948 254.3 221.177C254.288 212.791 253.811 204.736 252.656 197.708C251.504 190.697 249.664 184.626 246.875 180.271L245.191 181.349C247.765 185.37 249.548 191.13 250.682 198.032C251.814 204.918 252.289 212.858 252.3 221.18C252.322 237.822 250.492 255.898 248.426 269.928L250.405 270.22ZM246.875 180.271C239.603 168.911 224.903 167.009 212.451 167.777C206.171 168.164 200.34 169.237 196.083 170.21C193.953 170.697 192.213 171.16 191.004 171.502C190.399 171.673 189.927 171.814 189.604 171.913C189.443 171.962 189.319 172.001 189.235 172.027C189.193 172.04 189.161 172.051 189.139 172.058C189.128 172.061 189.119 172.064 189.113 172.066C189.11 172.067 189.108 172.068 189.107 172.068C189.106 172.068 189.105 172.069 189.105 172.069C189.104 172.069 189.104 172.069 189.413 173.02C189.723 173.971 189.723 173.971 189.723 173.971C189.723 173.971 189.723 173.971 189.724 173.97C189.725 173.97 189.726 173.97 189.729 173.969C189.733 173.967 189.74 173.965 189.75 173.962C189.769 173.956 189.798 173.947 189.837 173.934C189.916 173.91 190.034 173.873 190.189 173.825C190.499 173.731 190.958 173.594 191.548 173.427C192.73 173.092 194.436 172.638 196.529 172.16C200.717 171.202 206.436 170.152 212.574 169.773C224.958 169.01 238.568 171.003 245.191 181.349L246.875 180.271ZM108.328 105.482C106.584 104.239 105.052 102.723 103.791 100.993L102.175 102.171C103.563 104.075 105.248 105.743 107.167 107.11L108.328 105.482ZM102.054 101.952L106.09 112.096L107.948 111.356L103.912 101.212L102.054 101.952Z" fill="#596A8C"/>
</svg>
